<mxfile host="app.diagrams.net" modified="2024-05-16T17:04:09.592Z" agent="Mozilla/5.0 (Windows NT 10.0; Win64; x64) AppleWebKit/537.36 (KHTML, like Gecko) Chrome/124.0.0.0 Safari/537.36 Edg/124.0.0.0" etag="EUsqMLNglRjAdHw8d5ZO" version="24.4.2" type="device">
  <diagram id="C5RBs43oDa-KdzZeNtuy" name="Page-1">
    <mxGraphModel dx="1452" dy="652" grid="1" gridSize="10" guides="1" tooltips="1" connect="1" arrows="1" fold="1" page="1" pageScale="1" pageWidth="827" pageHeight="1169" math="0" shadow="0">
      <root>
        <mxCell id="WIyWlLk6GJQsqaUBKTNV-0" />
        <mxCell id="WIyWlLk6GJQsqaUBKTNV-1" parent="WIyWlLk6GJQsqaUBKTNV-0" />
        <mxCell id="WIyWlLk6GJQsqaUBKTNV-2" value="" style="rounded=0;html=1;jettySize=auto;orthogonalLoop=1;fontSize=11;endArrow=block;endFill=0;endSize=8;strokeWidth=1;shadow=0;labelBackgroundColor=none;edgeStyle=orthogonalEdgeStyle;entryX=0.5;entryY=0;entryDx=0;entryDy=0;" parent="WIyWlLk6GJQsqaUBKTNV-1" target="K3zHG9zC_JJCSQjephyi-133" edge="1">
          <mxGeometry relative="1" as="geometry">
            <mxPoint x="220" y="120" as="sourcePoint" />
            <mxPoint x="220" y="170" as="targetPoint" />
          </mxGeometry>
        </mxCell>
        <mxCell id="K3zHG9zC_JJCSQjephyi-124" value="Start" style="ellipse;whiteSpace=wrap;html=1;" parent="WIyWlLk6GJQsqaUBKTNV-1" vertex="1">
          <mxGeometry x="160" y="80" width="120" height="40" as="geometry" />
        </mxCell>
        <mxCell id="K3zHG9zC_JJCSQjephyi-125" value="lea si, str+2" style="rounded=1;whiteSpace=wrap;html=1;" parent="WIyWlLk6GJQsqaUBKTNV-1" vertex="1">
          <mxGeometry x="160" y="230" width="120" height="50" as="geometry" />
        </mxCell>
        <mxCell id="K3zHG9zC_JJCSQjephyi-126" value="" style="endArrow=classic;html=1;rounded=0;exitX=0.5;exitY=1;exitDx=0;exitDy=0;entryX=0.5;entryY=0;entryDx=0;entryDy=0;" parent="WIyWlLk6GJQsqaUBKTNV-1" source="K3zHG9zC_JJCSQjephyi-133" target="K3zHG9zC_JJCSQjephyi-125" edge="1">
          <mxGeometry width="50" height="50" relative="1" as="geometry">
            <mxPoint x="220" y="250" as="sourcePoint" />
            <mxPoint x="380" y="160" as="targetPoint" />
          </mxGeometry>
        </mxCell>
        <mxCell id="K3zHG9zC_JJCSQjephyi-127" value="mov dl, [si]" style="rounded=1;whiteSpace=wrap;html=1;" parent="WIyWlLk6GJQsqaUBKTNV-1" vertex="1">
          <mxGeometry x="160" y="310" width="120" height="50" as="geometry" />
        </mxCell>
        <mxCell id="K3zHG9zC_JJCSQjephyi-128" value="" style="endArrow=classic;html=1;rounded=0;exitX=0.5;exitY=1;exitDx=0;exitDy=0;entryX=0.5;entryY=0;entryDx=0;entryDy=0;" parent="WIyWlLk6GJQsqaUBKTNV-1" source="K3zHG9zC_JJCSQjephyi-125" target="K3zHG9zC_JJCSQjephyi-127" edge="1">
          <mxGeometry width="50" height="50" relative="1" as="geometry">
            <mxPoint x="360" y="380" as="sourcePoint" />
            <mxPoint x="410" y="330" as="targetPoint" />
          </mxGeometry>
        </mxCell>
        <mxCell id="K3zHG9zC_JJCSQjephyi-129" value="dl == &#39;$&#39;" style="rhombus;whiteSpace=wrap;html=1;" parent="WIyWlLk6GJQsqaUBKTNV-1" vertex="1">
          <mxGeometry x="180" y="390" width="80" height="80" as="geometry" />
        </mxCell>
        <mxCell id="K3zHG9zC_JJCSQjephyi-131" value="" style="endArrow=classic;html=1;rounded=0;exitX=1;exitY=0.5;exitDx=0;exitDy=0;entryX=0;entryY=0.5;entryDx=0;entryDy=0;" parent="WIyWlLk6GJQsqaUBKTNV-1" source="K3zHG9zC_JJCSQjephyi-129" target="K3zHG9zC_JJCSQjephyi-132" edge="1">
          <mxGeometry width="50" height="50" relative="1" as="geometry">
            <mxPoint x="280" y="470" as="sourcePoint" />
            <mxPoint x="310" y="430" as="targetPoint" />
          </mxGeometry>
        </mxCell>
        <mxCell id="K3zHG9zC_JJCSQjephyi-173" value="false&lt;div&gt;&lt;br&gt;&lt;/div&gt;" style="edgeLabel;html=1;align=center;verticalAlign=middle;resizable=0;points=[];" parent="K3zHG9zC_JJCSQjephyi-131" vertex="1" connectable="0">
          <mxGeometry x="-0.35" relative="1" as="geometry">
            <mxPoint as="offset" />
          </mxGeometry>
        </mxCell>
        <mxCell id="K3zHG9zC_JJCSQjephyi-132" value="dl&amp;lt;&#39;A&#39; or dl &amp;gt;= &#39;Z&#39;" style="rhombus;whiteSpace=wrap;html=1;" parent="WIyWlLk6GJQsqaUBKTNV-1" vertex="1">
          <mxGeometry x="340" y="390" width="150" height="80" as="geometry" />
        </mxCell>
        <mxCell id="K3zHG9zC_JJCSQjephyi-133" value="enter str" style="shape=parallelogram;perimeter=parallelogramPerimeter;whiteSpace=wrap;html=1;fixedSize=1;" parent="WIyWlLk6GJQsqaUBKTNV-1" vertex="1">
          <mxGeometry x="160" y="150" width="120" height="50" as="geometry" />
        </mxCell>
        <mxCell id="K3zHG9zC_JJCSQjephyi-134" value="print dl&lt;br&gt;inc si" style="rounded=1;whiteSpace=wrap;html=1;" parent="WIyWlLk6GJQsqaUBKTNV-1" vertex="1">
          <mxGeometry x="580" y="405" width="120" height="50" as="geometry" />
        </mxCell>
        <mxCell id="K3zHG9zC_JJCSQjephyi-136" value="add dl, 32" style="rounded=1;whiteSpace=wrap;html=1;" parent="WIyWlLk6GJQsqaUBKTNV-1" vertex="1">
          <mxGeometry x="355" y="510" width="120" height="50" as="geometry" />
        </mxCell>
        <mxCell id="K3zHG9zC_JJCSQjephyi-138" value="lea si, str+2" style="rounded=1;whiteSpace=wrap;html=1;" parent="WIyWlLk6GJQsqaUBKTNV-1" vertex="1">
          <mxGeometry x="160" y="540" width="120" height="50" as="geometry" />
        </mxCell>
        <mxCell id="K3zHG9zC_JJCSQjephyi-139" value="mov dl, [si]" style="rounded=1;whiteSpace=wrap;html=1;" parent="WIyWlLk6GJQsqaUBKTNV-1" vertex="1">
          <mxGeometry x="160" y="640" width="120" height="50" as="geometry" />
        </mxCell>
        <mxCell id="K3zHG9zC_JJCSQjephyi-140" value="dl == &#39;$&#39;" style="rhombus;whiteSpace=wrap;html=1;" parent="WIyWlLk6GJQsqaUBKTNV-1" vertex="1">
          <mxGeometry x="180" y="740" width="80" height="80" as="geometry" />
        </mxCell>
        <mxCell id="K3zHG9zC_JJCSQjephyi-141" value="" style="endArrow=classic;html=1;rounded=0;exitX=0.5;exitY=1;exitDx=0;exitDy=0;" parent="WIyWlLk6GJQsqaUBKTNV-1" source="K3zHG9zC_JJCSQjephyi-127" target="K3zHG9zC_JJCSQjephyi-129" edge="1">
          <mxGeometry width="50" height="50" relative="1" as="geometry">
            <mxPoint x="340" y="410" as="sourcePoint" />
            <mxPoint x="390" y="360" as="targetPoint" />
          </mxGeometry>
        </mxCell>
        <mxCell id="K3zHG9zC_JJCSQjephyi-143" value="" style="endArrow=classic;html=1;rounded=0;exitX=1;exitY=0.5;exitDx=0;exitDy=0;" parent="WIyWlLk6GJQsqaUBKTNV-1" source="K3zHG9zC_JJCSQjephyi-132" target="K3zHG9zC_JJCSQjephyi-134" edge="1">
          <mxGeometry width="50" height="50" relative="1" as="geometry">
            <mxPoint x="630" y="410" as="sourcePoint" />
            <mxPoint x="680" y="360" as="targetPoint" />
          </mxGeometry>
        </mxCell>
        <mxCell id="K3zHG9zC_JJCSQjephyi-175" value="true&lt;div&gt;&lt;br&gt;&lt;/div&gt;" style="edgeLabel;html=1;align=center;verticalAlign=middle;resizable=0;points=[];" parent="K3zHG9zC_JJCSQjephyi-143" vertex="1" connectable="0">
          <mxGeometry x="-0.5111" y="1" relative="1" as="geometry">
            <mxPoint as="offset" />
          </mxGeometry>
        </mxCell>
        <mxCell id="K3zHG9zC_JJCSQjephyi-144" value="" style="endArrow=classic;html=1;rounded=0;exitX=0.5;exitY=1;exitDx=0;exitDy=0;entryX=0.5;entryY=0;entryDx=0;entryDy=0;" parent="WIyWlLk6GJQsqaUBKTNV-1" source="K3zHG9zC_JJCSQjephyi-129" target="K3zHG9zC_JJCSQjephyi-138" edge="1">
          <mxGeometry width="50" height="50" relative="1" as="geometry">
            <mxPoint x="270" y="470" as="sourcePoint" />
            <mxPoint x="220" y="520" as="targetPoint" />
          </mxGeometry>
        </mxCell>
        <mxCell id="K3zHG9zC_JJCSQjephyi-174" value="true&lt;div&gt;&lt;br&gt;&lt;/div&gt;" style="edgeLabel;html=1;align=center;verticalAlign=middle;resizable=0;points=[];" parent="K3zHG9zC_JJCSQjephyi-144" vertex="1" connectable="0">
          <mxGeometry x="0.0236" y="-3" relative="1" as="geometry">
            <mxPoint as="offset" />
          </mxGeometry>
        </mxCell>
        <mxCell id="K3zHG9zC_JJCSQjephyi-148" value="" style="endArrow=classic;html=1;rounded=0;exitX=0.5;exitY=1;exitDx=0;exitDy=0;entryX=0.5;entryY=0;entryDx=0;entryDy=0;" parent="WIyWlLk6GJQsqaUBKTNV-1" source="K3zHG9zC_JJCSQjephyi-132" target="K3zHG9zC_JJCSQjephyi-136" edge="1">
          <mxGeometry width="50" height="50" relative="1" as="geometry">
            <mxPoint x="414" y="585" as="sourcePoint" />
            <mxPoint x="660" y="630" as="targetPoint" />
          </mxGeometry>
        </mxCell>
        <mxCell id="K3zHG9zC_JJCSQjephyi-178" value="false&lt;div&gt;&lt;br&gt;&lt;/div&gt;" style="edgeLabel;html=1;align=center;verticalAlign=middle;resizable=0;points=[];" parent="K3zHG9zC_JJCSQjephyi-148" vertex="1" connectable="0">
          <mxGeometry x="-0.0244" relative="1" as="geometry">
            <mxPoint as="offset" />
          </mxGeometry>
        </mxCell>
        <mxCell id="K3zHG9zC_JJCSQjephyi-150" value="" style="endArrow=classic;html=1;rounded=0;exitX=1;exitY=0.5;exitDx=0;exitDy=0;" parent="WIyWlLk6GJQsqaUBKTNV-1" source="K3zHG9zC_JJCSQjephyi-136" edge="1">
          <mxGeometry width="50" height="50" relative="1" as="geometry">
            <mxPoint x="620" y="750" as="sourcePoint" />
            <mxPoint x="540" y="430" as="targetPoint" />
            <Array as="points">
              <mxPoint x="540" y="535" />
            </Array>
          </mxGeometry>
        </mxCell>
        <mxCell id="K3zHG9zC_JJCSQjephyi-151" value="" style="endArrow=classic;html=1;rounded=0;exitX=0.5;exitY=0;exitDx=0;exitDy=0;entryX=1;entryY=0.5;entryDx=0;entryDy=0;" parent="WIyWlLk6GJQsqaUBKTNV-1" source="K3zHG9zC_JJCSQjephyi-134" target="K3zHG9zC_JJCSQjephyi-127" edge="1">
          <mxGeometry width="50" height="50" relative="1" as="geometry">
            <mxPoint x="610" y="360" as="sourcePoint" />
            <mxPoint x="660" y="310" as="targetPoint" />
            <Array as="points">
              <mxPoint x="640" y="335" />
            </Array>
          </mxGeometry>
        </mxCell>
        <mxCell id="K3zHG9zC_JJCSQjephyi-153" value="dl&amp;lt;&#39;a&#39; or dl &amp;gt; &#39;z&#39;&amp;nbsp;" style="rhombus;whiteSpace=wrap;html=1;" parent="WIyWlLk6GJQsqaUBKTNV-1" vertex="1">
          <mxGeometry x="340" y="740" width="140" height="80" as="geometry" />
        </mxCell>
        <mxCell id="K3zHG9zC_JJCSQjephyi-154" value="print dl&lt;br&gt;inc si" style="rounded=1;whiteSpace=wrap;html=1;" parent="WIyWlLk6GJQsqaUBKTNV-1" vertex="1">
          <mxGeometry x="580" y="755" width="120" height="50" as="geometry" />
        </mxCell>
        <mxCell id="K3zHG9zC_JJCSQjephyi-156" value="sub dl, 32" style="rounded=1;whiteSpace=wrap;html=1;" parent="WIyWlLk6GJQsqaUBKTNV-1" vertex="1">
          <mxGeometry x="350" y="870" width="120" height="60" as="geometry" />
        </mxCell>
        <mxCell id="K3zHG9zC_JJCSQjephyi-158" value="" style="endArrow=classic;html=1;rounded=0;exitX=1;exitY=0.5;exitDx=0;exitDy=0;" parent="WIyWlLk6GJQsqaUBKTNV-1" source="K3zHG9zC_JJCSQjephyi-153" target="K3zHG9zC_JJCSQjephyi-154" edge="1">
          <mxGeometry width="50" height="50" relative="1" as="geometry">
            <mxPoint x="656" y="870" as="sourcePoint" />
            <mxPoint x="706" y="820" as="targetPoint" />
          </mxGeometry>
        </mxCell>
        <mxCell id="K3zHG9zC_JJCSQjephyi-181" value="true" style="edgeLabel;html=1;align=center;verticalAlign=middle;resizable=0;points=[];" parent="K3zHG9zC_JJCSQjephyi-158" vertex="1" connectable="0">
          <mxGeometry x="-0.5" y="-2" relative="1" as="geometry">
            <mxPoint as="offset" />
          </mxGeometry>
        </mxCell>
        <mxCell id="K3zHG9zC_JJCSQjephyi-160" value="" style="endArrow=classic;html=1;rounded=0;exitX=0.5;exitY=1;exitDx=0;exitDy=0;entryX=0.5;entryY=0;entryDx=0;entryDy=0;" parent="WIyWlLk6GJQsqaUBKTNV-1" source="K3zHG9zC_JJCSQjephyi-153" target="K3zHG9zC_JJCSQjephyi-156" edge="1">
          <mxGeometry width="50" height="50" relative="1" as="geometry">
            <mxPoint x="414" y="940" as="sourcePoint" />
            <mxPoint x="686" y="1090" as="targetPoint" />
          </mxGeometry>
        </mxCell>
        <mxCell id="K3zHG9zC_JJCSQjephyi-184" value="false&lt;div&gt;&lt;br&gt;&lt;/div&gt;" style="edgeLabel;html=1;align=center;verticalAlign=middle;resizable=0;points=[];" parent="K3zHG9zC_JJCSQjephyi-160" vertex="1" connectable="0">
          <mxGeometry x="-0.4286" y="1" relative="1" as="geometry">
            <mxPoint as="offset" />
          </mxGeometry>
        </mxCell>
        <mxCell id="K3zHG9zC_JJCSQjephyi-162" value="" style="endArrow=classic;html=1;rounded=0;exitX=1;exitY=0.5;exitDx=0;exitDy=0;entryX=0;entryY=0.5;entryDx=0;entryDy=0;" parent="WIyWlLk6GJQsqaUBKTNV-1" source="K3zHG9zC_JJCSQjephyi-156" target="K3zHG9zC_JJCSQjephyi-154" edge="1">
          <mxGeometry width="50" height="50" relative="1" as="geometry">
            <mxPoint x="646" y="1210" as="sourcePoint" />
            <mxPoint x="670" y="880" as="targetPoint" />
            <Array as="points">
              <mxPoint x="540" y="900" />
              <mxPoint x="540" y="780" />
            </Array>
          </mxGeometry>
        </mxCell>
        <mxCell id="mHx3GBXdA7gHMaou9L64-0" value="" style="edgeStyle=orthogonalEdgeStyle;rounded=0;orthogonalLoop=1;jettySize=auto;html=1;" edge="1" parent="WIyWlLk6GJQsqaUBKTNV-1" source="K3zHG9zC_JJCSQjephyi-164" target="K3zHG9zC_JJCSQjephyi-140">
          <mxGeometry relative="1" as="geometry" />
        </mxCell>
        <mxCell id="K3zHG9zC_JJCSQjephyi-164" value="mov ah, 4ch&lt;br&gt;int 21h" style="rounded=1;whiteSpace=wrap;html=1;" parent="WIyWlLk6GJQsqaUBKTNV-1" vertex="1">
          <mxGeometry x="160" y="900" width="120" height="55" as="geometry" />
        </mxCell>
        <mxCell id="K3zHG9zC_JJCSQjephyi-165" value="" style="endArrow=classic;html=1;rounded=0;exitX=0.5;exitY=1;exitDx=0;exitDy=0;entryX=0.5;entryY=0;entryDx=0;entryDy=0;" parent="WIyWlLk6GJQsqaUBKTNV-1" source="K3zHG9zC_JJCSQjephyi-138" target="K3zHG9zC_JJCSQjephyi-139" edge="1">
          <mxGeometry width="50" height="50" relative="1" as="geometry">
            <mxPoint x="410" y="860" as="sourcePoint" />
            <mxPoint x="460" y="810" as="targetPoint" />
          </mxGeometry>
        </mxCell>
        <mxCell id="K3zHG9zC_JJCSQjephyi-166" value="" style="endArrow=classic;html=1;rounded=0;exitX=0.5;exitY=1;exitDx=0;exitDy=0;entryX=0.5;entryY=0;entryDx=0;entryDy=0;" parent="WIyWlLk6GJQsqaUBKTNV-1" source="K3zHG9zC_JJCSQjephyi-139" target="K3zHG9zC_JJCSQjephyi-140" edge="1">
          <mxGeometry width="50" height="50" relative="1" as="geometry">
            <mxPoint x="360" y="860" as="sourcePoint" />
            <mxPoint x="410" y="810" as="targetPoint" />
          </mxGeometry>
        </mxCell>
        <mxCell id="K3zHG9zC_JJCSQjephyi-167" value="" style="endArrow=classic;html=1;rounded=0;exitX=0.5;exitY=1;exitDx=0;exitDy=0;entryX=0.5;entryY=0;entryDx=0;entryDy=0;" parent="WIyWlLk6GJQsqaUBKTNV-1" source="K3zHG9zC_JJCSQjephyi-140" target="K3zHG9zC_JJCSQjephyi-164" edge="1">
          <mxGeometry width="50" height="50" relative="1" as="geometry">
            <mxPoint x="370" y="840" as="sourcePoint" />
            <mxPoint x="220" y="870" as="targetPoint" />
          </mxGeometry>
        </mxCell>
        <mxCell id="K3zHG9zC_JJCSQjephyi-180" value="&lt;div&gt;true&lt;/div&gt;" style="edgeLabel;html=1;align=center;verticalAlign=middle;resizable=0;points=[];" parent="K3zHG9zC_JJCSQjephyi-167" vertex="1" connectable="0">
          <mxGeometry x="0.08" y="-1" relative="1" as="geometry">
            <mxPoint as="offset" />
          </mxGeometry>
        </mxCell>
        <mxCell id="K3zHG9zC_JJCSQjephyi-168" value="" style="endArrow=classic;html=1;rounded=0;exitX=1;exitY=0.5;exitDx=0;exitDy=0;entryX=0;entryY=0.5;entryDx=0;entryDy=0;" parent="WIyWlLk6GJQsqaUBKTNV-1" source="K3zHG9zC_JJCSQjephyi-140" target="K3zHG9zC_JJCSQjephyi-153" edge="1">
          <mxGeometry width="50" height="50" relative="1" as="geometry">
            <mxPoint x="240" y="850" as="sourcePoint" />
            <mxPoint x="320" y="780" as="targetPoint" />
          </mxGeometry>
        </mxCell>
        <mxCell id="K3zHG9zC_JJCSQjephyi-179" value="&lt;div&gt;false&lt;/div&gt;&lt;div&gt;&lt;br&gt;&lt;/div&gt;" style="edgeLabel;html=1;align=center;verticalAlign=middle;resizable=0;points=[];" parent="K3zHG9zC_JJCSQjephyi-168" vertex="1" connectable="0">
          <mxGeometry x="-0.2667" relative="1" as="geometry">
            <mxPoint as="offset" />
          </mxGeometry>
        </mxCell>
        <mxCell id="K3zHG9zC_JJCSQjephyi-170" value="end" style="ellipse;whiteSpace=wrap;html=1;" parent="WIyWlLk6GJQsqaUBKTNV-1" vertex="1">
          <mxGeometry x="160" y="990" width="120" height="60" as="geometry" />
        </mxCell>
        <mxCell id="K3zHG9zC_JJCSQjephyi-171" value="" style="endArrow=classic;html=1;rounded=0;exitX=0.5;exitY=1;exitDx=0;exitDy=0;entryX=0.5;entryY=0;entryDx=0;entryDy=0;" parent="WIyWlLk6GJQsqaUBKTNV-1" source="K3zHG9zC_JJCSQjephyi-164" target="K3zHG9zC_JJCSQjephyi-170" edge="1">
          <mxGeometry width="50" height="50" relative="1" as="geometry">
            <mxPoint x="390" y="1140" as="sourcePoint" />
            <mxPoint x="440" y="1090" as="targetPoint" />
          </mxGeometry>
        </mxCell>
        <mxCell id="K3zHG9zC_JJCSQjephyi-172" value="" style="endArrow=classic;html=1;rounded=0;entryX=1;entryY=0.5;entryDx=0;entryDy=0;exitX=0.5;exitY=0;exitDx=0;exitDy=0;" parent="WIyWlLk6GJQsqaUBKTNV-1" source="K3zHG9zC_JJCSQjephyi-154" target="K3zHG9zC_JJCSQjephyi-139" edge="1">
          <mxGeometry width="50" height="50" relative="1" as="geometry">
            <mxPoint x="730" y="850" as="sourcePoint" />
            <mxPoint x="750" y="720" as="targetPoint" />
            <Array as="points">
              <mxPoint x="640" y="665" />
            </Array>
          </mxGeometry>
        </mxCell>
      </root>
    </mxGraphModel>
  </diagram>
</mxfile>
